<svg width="208" height="40" viewBox="0 0 208 40" fill="none" xmlns="http://www.w3.org/2000/svg">
<path d="M30 0H10C4.47715 0 0 4.47715 0 10V30C0 35.5228 4.47715 40 10 40H30C35.5228 40 40 35.5228 40 30V10C40 4.47715 35.5228 0 30 0Z" fill="#06A055"/>
<path d="M16 13C16 16.0597 17.8311 18.7081 20.4999 20C23.1689 18.7081 25 16.0597 25 13C25 9.94033 23.1689 7.29186 20.4999 6C17.8311 7.29186 16 9.94033 16 13Z" fill="white"/>
<path d="M7.79214 30.9931C10.4246 33.828 14.212 34.657 17.5225 33.4858C18.6101 29.9205 17.8403 25.8417 15.208 23.0068C12.5755 20.172 8.78813 19.343 5.4775 20.5142C4.3899 24.0794 5.1597 28.1582 7.79214 30.9931Z" fill="white"/>
<path d="M24.7921 23.0069C22.1597 25.8419 21.3899 29.9206 22.4775 33.4858C25.7881 34.657 29.5755 33.828 32.208 30.9932C34.8403 28.1583 35.6101 24.0795 34.5225 20.5142C31.212 19.343 27.4246 20.172 24.7921 23.0069Z" fill="white"/>
</svg>
