<svg width="277" height="50" viewBox="0 0 277 50" fill="none" xmlns="http://www.w3.org/2000/svg">
<g clip-path="url(#clip0_6_16)">
<path d="M39.9519 0H13.3173C5.96236 0 0 5.59644 0 12.5V37.5C0 44.4036 5.96236 50 13.3173 50H39.9519C47.3069 50 53.2692 44.4036 53.2692 37.5V12.5C53.2692 5.59644 47.3069 0 39.9519 0Z" fill="#06A055"/>
<path d="M21.3077 16.25C21.3077 20.0746 23.7462 23.3851 27.3003 25C30.8547 23.3851 33.2933 20.0746 33.2933 16.25C33.2933 12.4254 30.8547 9.11482 27.3003 7.5C23.7462 9.11482 21.3077 12.4254 21.3077 16.25Z" fill="white"/>
<path d="M10.377 38.7414C13.8828 42.285 18.9266 43.3213 23.3353 41.8573C24.7836 37.4006 23.7585 32.3021 20.253 28.7585C16.7472 25.215 11.7034 24.1787 7.29455 25.6427C5.84616 30.0992 6.87133 35.1977 10.377 38.7414Z" fill="white"/>
<path d="M33.0164 28.7586C29.5108 32.3024 28.4856 37.4007 29.934 41.8572C34.3428 43.3212 39.3866 42.285 42.8924 38.7415C46.3979 35.1979 47.4231 30.0994 45.9747 25.6427C41.566 24.1787 36.5222 25.215 33.0164 28.7586Z" fill="white"/>
<path d="M61.72 36.9844C61.522 36.9635 61.371 36.875 61.2668 36.7188C61.1627 36.5625 61.121 36.3906 61.1418 36.2031C61.1939 35.8802 61.2929 35.5833 61.4387 35.3125C61.5845 35.0417 61.6887 34.8385 61.7512 34.7031C61.8241 34.5677 61.897 34.4167 61.97 34.25L62.5637 32.875L68.9856 13.6406L75.8918 26.9844L82.595 13.6406L90.6106 36.75H82.22L78.345 24.8125L72.345 37.3125L66.0325 26.0625L63.845 32.8906C63.5012 33.651 63.2564 34.2969 63.1106 34.8281C62.9647 35.3594 62.845 35.7708 62.7512 36.0625C62.5429 36.7188 62.1991 37.026 61.72 36.9844ZM96.97 17.3281C95.897 17.3281 95.0585 17.0885 94.4543 16.6094C93.8502 16.1302 93.5481 15.5 93.5481 14.7188C93.5481 14.0625 93.8814 13.5 94.5481 13.0312C95.2564 12.5312 96.0064 12.2812 96.7981 12.2812C97.5897 12.2812 98.1991 12.3594 98.6262 12.5156C99.0637 12.6719 99.4335 12.875 99.7356 13.125C100.34 13.6354 100.642 14.2292 100.642 14.9062C100.642 15.5833 100.298 16.1562 99.6106 16.625C98.9231 17.0938 98.0429 17.3281 96.97 17.3281ZM93.6887 20.0625H100.407V36.75H93.6887V20.0625ZM117.095 21.7656C116.835 21.599 116.553 21.5156 116.251 21.5156C115.949 21.5156 115.637 21.5885 115.314 21.7344C114.991 21.8698 114.652 22.0625 114.298 22.3125C113.558 22.8438 112.876 23.5521 112.251 24.4375V36.75H105.532V20.0625H112.251V22.7344C114.032 20.7656 116.048 19.7812 118.298 19.7812C121.975 19.7812 123.814 21.5625 123.814 25.125V36.75H117.095V21.7656ZM140.767 35.8906C139.465 36.6615 138.085 37.0469 136.626 37.0469C135.178 37.0469 133.902 36.8333 132.798 36.4062C131.704 35.9688 130.767 35.3646 129.986 34.5938C128.361 32.9792 127.548 30.8802 127.548 28.2969C127.548 25.901 128.35 23.9062 129.954 22.3125C131.663 20.625 133.892 19.7812 136.642 19.7812C138.1 19.7812 139.475 20.099 140.767 20.7344V14.6406H147.204V36.75H140.767V35.8906ZM136.329 20.9219C136.006 20.9219 135.699 20.9427 135.407 20.9844V35.7969C135.782 35.8594 136.189 35.8906 136.626 35.8906C138.074 35.8906 139.454 35.4323 140.767 34.5156V22.125C139.361 21.3229 137.881 20.9219 136.329 20.9219ZM152.376 35.625C152.012 35.4167 151.694 35.1979 151.423 34.9688C151.163 34.7396 151.032 34.4948 151.032 34.2344C151.032 33.7344 151.246 33.4844 151.673 33.4844C151.954 33.4844 152.267 33.6406 152.611 33.9531C152.954 34.2656 153.34 34.5417 153.767 34.7812C154.194 35.0104 154.657 35.2083 155.157 35.375C156.189 35.7188 157.142 35.8906 158.017 35.8906C158.892 35.8906 159.564 35.8333 160.032 35.7188C160.512 35.6042 160.913 35.4479 161.236 35.25C161.923 34.8229 162.267 34.276 162.267 33.6094C162.267 32.9948 161.97 32.375 161.376 31.75C160.876 31.2188 160.168 30.5833 159.251 29.8438L156.579 27.75C153.902 25.6875 152.324 23.8021 151.845 22.0938C151.678 21.5 151.595 20.8385 151.595 20.1094C151.595 19.3802 151.756 18.6615 152.079 17.9531C152.413 17.2448 152.902 16.625 153.548 16.0938C154.933 14.9375 156.819 14.3594 159.204 14.3594C160.423 14.3594 161.517 14.5417 162.486 14.9062C163.454 15.2604 164.116 15.5781 164.47 15.8594C164.824 16.1406 165.001 16.3958 165.001 16.625C165.001 17.1042 164.803 17.3438 164.407 17.3438C164.178 17.3438 163.933 17.2292 163.673 17C163.413 16.7708 163.121 16.5729 162.798 16.4062C162.486 16.2292 162.126 16.0729 161.72 15.9375C160.845 15.6458 159.986 15.5 159.142 15.5C157.59 15.5 156.814 16.0104 156.814 17.0312C156.814 17.4583 156.954 17.8542 157.236 18.2188C157.736 18.8542 158.71 19.7656 160.157 20.9531C161.616 22.1302 162.782 23.1615 163.657 24.0469C164.543 24.9323 165.215 25.7292 165.673 26.4375C166.402 27.5521 166.767 28.7135 166.767 29.9219C166.767 31.1198 166.553 32.1406 166.126 32.9844C165.71 33.8177 165.121 34.5365 164.361 35.1406C162.756 36.4115 160.767 37.0469 158.392 37.0469C156.017 37.0469 154.012 36.5729 152.376 35.625ZM181.532 37.0469C180.085 37.0469 178.683 36.7188 177.329 36.0625V41.75H170.907V20.0625H177.329V20.9219C178.694 20.1615 180.09 19.7812 181.517 19.7812C182.944 19.7812 184.204 19.9948 185.298 20.4219C186.392 20.849 187.329 21.4375 188.111 22.1875C189.725 23.7708 190.532 25.7969 190.532 28.2656C190.532 30.7552 189.736 32.8229 188.142 34.4688C186.496 36.1875 184.293 37.0469 181.532 37.0469ZM181.486 20.9219C179.944 20.9219 178.558 21.349 177.329 22.2031V34.6719C178.736 35.4844 180.267 35.8906 181.923 35.8906H182.329C182.454 35.8906 182.574 35.8802 182.689 35.8594V21.0156C182.293 20.9531 181.892 20.9219 181.486 20.9219ZM207.298 19.7812C210.965 19.7812 212.798 21.5625 212.798 25.125V36.75H206.079V21.5469C205.892 21.4219 205.642 21.3594 205.329 21.3594C205.027 21.3594 204.71 21.4323 204.376 21.5781C204.043 21.724 203.694 21.9271 203.329 22.1875C202.548 22.7604 201.855 23.4792 201.251 24.3438V36.75H194.532V14.6406H201.251V22.7031C203.032 20.7552 205.048 19.7812 207.298 19.7812ZM232.407 32.9531C232.814 32.9531 233.017 33.1406 233.017 33.5156C233.017 33.7969 232.835 34.1302 232.47 34.5156C230.824 36.2031 228.569 37.0469 225.704 37.0469C223.131 37.0469 220.965 36.2708 219.204 34.7188C217.381 33.1042 216.47 31.0625 216.47 28.5938C216.47 26.0729 217.293 24 218.939 22.375C220.678 20.6458 222.991 19.7812 225.876 19.7812C228.189 19.7812 230.131 20.4844 231.704 21.8906C233.402 23.401 234.251 25.3854 234.251 27.8438C234.251 28.1979 234.241 28.5729 234.22 28.9688H223.907V35.6719C224.616 35.8177 225.413 35.8906 226.298 35.8906C228.173 35.8906 229.772 35.2708 231.095 34.0312C231.366 33.7604 231.558 33.5469 231.673 33.3906C231.913 33.099 232.157 32.9531 232.407 32.9531ZM228.236 21.2188C227.558 21.0208 226.793 20.9219 225.939 20.9219C225.085 20.9219 224.407 20.9792 223.907 21.0938V27.8281H228.236V21.2188ZM238.22 20.0625H244.939V24.9688C245.657 23.1875 246.428 21.8802 247.251 21.0469C248.085 20.2031 248.918 19.7812 249.751 19.7812C250.22 19.7812 250.59 19.9062 250.861 20.1562C251.142 20.3958 251.282 20.6667 251.282 20.9688C251.282 21.2708 251.241 21.5104 251.157 21.6875C251.074 21.8646 250.965 22.0156 250.829 22.1406C250.548 22.401 250.282 22.5312 250.032 22.5312C249.637 22.5312 249.345 22.4896 249.157 22.4062C248.835 22.2604 248.548 22.1875 248.298 22.1875C248.048 22.1875 247.73 22.3906 247.345 22.7969C246.96 23.1927 246.59 23.7448 246.236 24.4531C245.371 26.1823 244.939 28.0573 244.939 30.0781V36.75H238.22V20.0625ZM267.814 32.9531C268.22 32.9531 268.423 33.1406 268.423 33.5156C268.423 33.7969 268.241 34.1302 267.876 34.5156C266.23 36.2031 263.975 37.0469 261.111 37.0469C258.538 37.0469 256.371 36.2708 254.611 34.7188C252.788 33.1042 251.876 31.0625 251.876 28.5938C251.876 26.0729 252.699 24 254.345 22.375C256.085 20.6458 258.397 19.7812 261.282 19.7812C263.595 19.7812 265.538 20.4844 267.111 21.8906C268.808 23.401 269.657 25.3854 269.657 27.8438C269.657 28.1979 269.647 28.5729 269.626 28.9688H259.314V35.6719C260.022 35.8177 260.819 35.8906 261.704 35.8906C263.579 35.8906 265.178 35.2708 266.501 34.0312C266.772 33.7604 266.965 33.5469 267.079 33.3906C267.319 33.099 267.564 32.9531 267.814 32.9531ZM263.642 21.2188C262.965 21.0208 262.199 20.9219 261.345 20.9219C260.491 20.9219 259.814 20.9792 259.314 21.0938V27.8281H263.642V21.2188Z" fill="white"/>
</g>
<defs>
<clipPath id="clip0_6_16">
<rect width="277" height="50" fill="white"/>
</clipPath>
</defs>
</svg>
